<svg width="57.016" xmlns="http://www.w3.org/2000/svg" height="57.016" viewBox="-0.008 -0.008 57.016 57.016" fill="none"><g class="fills"><rect rx="0" ry="0" width="57" height="57" class="frame-background"/></g><g class="frame-children"><g class="icon" style="fill: rgb(0, 0, 0);"><defs><linearGradient id="a" x1=".519" y1=".034" x2=".505" y2=".772"><stop offset="0" stop-color="#ffd8d8"/><stop offset="1" stop-color="#dcf4ff"/></linearGradient><pattern patternUnits="userSpaceOnUse" x="6.255" y="6.249" width="44.502" height="44.501" id="b"><rect width="44.502" height="44.501" style="fill: url(&quot;#a&quot;);"/></pattern></defs><path d="M28.497 17.083a11.401 11.401 0 0 0-11.414 11.42 11.401 11.401 0 0 0 11.42 11.414 11.401 11.401 0 0 0 11.414-11.42 11.401 11.401 0 0 0-11.42-11.414Zm.005 18.837c-4.086.001-7.421-3.332-7.422-7.418-.001-4.086 3.332-7.421 7.418-7.422 4.086-.001 7.421 3.332 7.422 7.418.001 4.086-3.332 7.421-7.418 7.422ZM40.38 13.952a2.662 2.662 0 0 0-2.665 2.667 2.662 2.662 0 0 0 2.667 2.665 2.658 2.658 0 0 0 2.665-2.667 2.663 2.663 0 0 0-2.667-2.665Zm10.374 14.542c0-3.073.027-6.118-.147-9.185-.173-3.562-.987-6.724-3.593-9.328-2.611-2.61-5.768-3.416-9.33-3.588-3.073-.172-6.118-.143-9.185-.142-3.072.001-6.117-.026-9.184.147-3.563.174-6.724.988-9.329 3.593-2.609 2.612-3.416 5.768-3.587 9.331-.172 3.072-.143 6.117-.142 9.184.001 3.067-.026 6.118.147 9.185.174 3.562.987 6.724 3.593 9.328 2.611 2.61 5.768 3.416 9.33 3.588 3.073.172 6.118.143 9.185.142 3.073-.001 6.117.026 9.184-.147 3.563-.174 6.724-.988 9.329-3.593 2.61-2.612 3.416-5.768 3.587-9.331.178-3.067.143-6.112.142-9.184ZM45.86 41.621c-.406 1.013-.896 1.77-1.681 2.55a7.103 7.103 0 0 1-2.548 1.681c-2.928 1.165-9.881.905-13.126.906-3.245.001-10.203.264-13.131-.893-1.013-.406-1.771-.895-2.55-1.68a7.13 7.13 0 0 1-1.682-2.549c-1.159-2.933-.899-9.886-.9-13.131-.001-3.245-.264-10.203.893-13.131.406-1.013.895-1.771 1.68-2.55a7.197 7.197 0 0 1 2.549-1.682c2.927-1.159 9.886-.899 13.131-.9 3.245-.001 10.203-.264 13.131.893 1.013.406 1.771.895 2.55 1.68a7.13 7.13 0 0 1 1.682 2.549c1.159 2.927.899 9.886.9 13.131.001 3.245.264 10.197-.898 13.126Z" fill="url(#b)" class="fills"/></g></g></svg>