<svg width="58" xmlns="http://www.w3.org/2000/svg" height="57" fill="none"><g style="fill: rgb(0, 0, 0);"><defs><linearGradient id="a" x1=".519" y1=".034" x2=".505" y2=".772"><stop offset="0" stop-color="#ffd8d8"/><stop offset="1" stop-color="#dcf4ff"/></linearGradient><pattern patternUnits="userSpaceOnUse" x="5.8" y="5.7" width="46.4" height="45.6" id="b"><rect width="46.4" height="45.6" style="fill: url(&quot;#a&quot;);"/></pattern></defs><path d="M29 5.7C16.188 5.7 5.8 15.908 5.8 28.5c0 12.591 10.388 22.8 23.2 22.8 12.814 0 23.2-10.209 23.2-22.8C52.2 15.908 41.814 5.7 29 5.7Zm0 41.8c-10.677 0-19.333-8.507-19.333-19 0-10.494 8.656-19 19.333-19 10.678 0 19.333 8.506 19.333 19 0 10.493-8.655 19-19.333 19Z" fill="url(#b)" class="fills"/><defs><linearGradient id="c" x1=".519" y1=".034" x2=".505" y2=".772"><stop offset="0" stop-color="#ffd8d8"/><stop offset="1" stop-color="#dcf4ff"/></linearGradient><pattern patternUnits="userSpaceOnUse" x="14.017" y="19.388" width="30.933" height="7.891" id="d"><rect width="30.933" height="7.891" style="fill: url(&quot;#c&quot;);"/></pattern></defs><path d="M44.95 25.281c-.006 1.547-1.658 2.496-3.04 1.725a24.32 24.32 0 0 0-2.9-1.387c-1.988-.784-4.048-1.309-6.154-1.675a39.344 39.344 0 0 0-4.426-.51 42.367 42.367 0 0 0-4.633-.025c-1.771.092-3.529.283-5.264.651-.638.134-1.27.307-1.903.474-.389.103-.77.116-1.159.002a1.99 1.99 0 0 1-1.454-1.859 1.946 1.946 0 0 1 1.344-1.907 20.817 20.817 0 0 1 1.87-.496c1.556-.355 3.13-.573 4.72-.714a42.943 42.943 0 0 1 5.073-.154c4.169.116 8.256.718 12.214 2.059a26.309 26.309 0 0 1 4.641 2.072c.526.303.88.728 1.014 1.314.03.142.038.289.057.43Z" fill="url(#d)" clip-rule="evenodd" fill-rule="evenodd" class="fills"/><defs><linearGradient id="e" x1=".519" y1=".034" x2=".505" y2=".772"><stop offset="0" stop-color="#ffd8d8"/><stop offset="1" stop-color="#dcf4ff"/></linearGradient><pattern patternUnits="userSpaceOnUse" x="15.485" y="26.747" width="26.406" height="7.098" id="f"><rect width="26.406" height="7.098" style="fill: url(&quot;#e&quot;);"/></pattern></defs><path d="M25.256 30.056c-2.486.011-5.031.314-7.518 1.035-.402.119-.81.131-1.209-.031a1.646 1.646 0 0 1-1.044-1.564c.025-.704.461-1.314 1.148-1.52a26.301 26.301 0 0 1 2.13-.549 30.055 30.055 0 0 1 5.35-.655c3.88-.145 7.673.347 11.371 1.514a25.74 25.74 0 0 1 5.35 2.348c.084.05.169.098.252.148.882.531.987 1.595.567 2.271-.482.779-1.479 1.02-2.309.558-.471-.256-.933-.531-1.413-.77-2.195-1.101-4.524-1.813-6.94-2.263a32.03 32.03 0 0 0-5.735-.522Z" fill="url(#f)" class="fills"/><defs><linearGradient id="g" x1=".519" y1=".034" x2=".505" y2=".772"><stop offset="0" stop-color="#ffd8d8"/><stop offset="1" stop-color="#dcf4ff"/></linearGradient><pattern patternUnits="userSpaceOnUse" x="16.398" y="33.677" width="22.785" height="5.833" id="h"><rect width="22.785" height="5.833" style="fill: url(&quot;#g&quot;);"/></pattern></defs><path d="M25.645 33.677c2.861.03 5.659.41 8.374 1.314a22.074 22.074 0 0 1 4.288 1.934c.119.066.237.133.345.214.548.41.691 1.152.336 1.734a1.346 1.346 0 0 1-1.685.524c-.127-.056-.242-.126-.361-.192-2.304-1.345-4.786-2.177-7.428-2.572a26.027 26.027 0 0 0-4.888-.265 35.57 35.57 0 0 0-6.274.821c-.209.042-.422.086-.636.087a1.29 1.29 0 0 1-1.293-1.047 1.296 1.296 0 0 1 .801-1.475c.128-.051.264-.083.394-.111a38.31 38.31 0 0 1 5.128-.799c.964-.082 1.932-.114 2.899-.167Z" fill="url(#h)" clip-rule="evenodd" fill-rule="evenodd" class="fills"/></g></svg>