<svg width="52" xmlns="http://www.w3.org/2000/svg" height="52.03" viewBox="-0.007 -0.007 52 52.03" fill="none"><g class="fills"><rect rx="0" ry="0" width="51.985" height="52.015" class="frame-background"/></g><g class="frame-children"><g class="icon" style="fill: rgb(0, 0, 0);"><defs><linearGradient id="a" x1=".519" y1=".034" x2=".505" y2=".772"><stop offset="0" stop-color="#ffd8d8"/><stop offset="1" stop-color="#dcf4ff"/></linearGradient><pattern patternUnits="userSpaceOnUse" x="14.626" y="15.442" width="22.742" height="21.132" id="b"><rect width="22.742" height="21.132" style="fill: url(&quot;#a&quot;);"/></pattern></defs><path d="M36.223 30.469c-.553-.284-3.31-1.634-3.823-1.817-.513-.193-.888-.284-1.259.285-.375.564-1.441 1.819-1.776 2.2-.325.376-.655.422-1.208.142-3.29-1.644-5.448-2.934-7.617-6.657-.574-.99.573-.919 1.644-3.058.182-.376.091-.696-.051-.98-.142-.285-1.26-3.038-1.728-4.16-.452-1.092-.919-.94-1.259-.96-.325-.02-.695-.02-1.071-.02s-.98.143-1.492.697c-.513.564-1.959 1.92-1.959 4.673.001 2.753 2.007 5.42 2.281 5.795.285.376 3.947 6.024 9.567 8.455 3.554 1.533 4.946 1.665 6.722 1.4 1.082-.163 3.31-1.352 3.771-2.668.462-1.31.462-2.433.325-2.666-.138-.249-.513-.391-1.067-.661Z" fill="url(#b)" class="fills"/><defs><linearGradient id="c" x1=".519" y1=".034" x2=".505" y2=".772"><stop offset="0" stop-color="#ffd8d8"/><stop offset="1" stop-color="#dcf4ff"/></linearGradient><pattern patternUnits="userSpaceOnUse" x="3.249" y="3.251" width="45.488" height="45.513" id="d"><rect width="45.488" height="45.513" style="fill: url(&quot;#c&quot;);"/></pattern></defs><path d="M46.967 17.183a22.765 22.765 0 0 0-4.891-7.277 22.547 22.547 0 0 0-7.276-4.89 22.636 22.636 0 0 0-8.814-1.765h-.101a22.671 22.671 0 0 0-16.066 6.73 22.537 22.537 0 0 0-4.831 7.255 22.773 22.773 0 0 0-1.739 8.885c.016 3.525.86 7.024 2.44 10.153l.002 7.721a2.336 2.336 0 0 0 2.336 2.336l7.722-.002a22.794 22.794 0 0 0 10.149 2.435h.106a22.749 22.749 0 0 0 8.767-1.745 22.555 22.555 0 0 0 7.248-4.838 22.542 22.542 0 0 0 4.897-7.214 22.712 22.712 0 0 0 1.82-8.864 22.684 22.684 0 0 0-1.769-8.92Zm-7.665 22.251c-3.557 3.526-8.278 5.468-13.304 5.469l-.086.001a18.949 18.949 0 0 1-8.789-2.208l-.426-.228-7.148.002-.002-7.152-.229-.427a18.973 18.973 0 0 1-2.211-8.792c-.021-5.064 1.911-9.819 5.459-13.401 3.543-3.582 8.278-5.565 13.34-5.587h.086c2.539 0 5.001.492 7.321 1.466a18.772 18.772 0 0 1 6.043 4.062 18.842 18.842 0 0 1 5.532 13.449c-.029 5.06-2.013 9.799-5.586 13.346Z" fill="url(#d)" class="fills"/></g></g></svg>