<svg width="56.016" xmlns="http://www.w3.org/2000/svg" height="56.016" viewBox="-0.008 -0.008 56.016 56.016" fill="none"><g class="fills"><rect rx="0" ry="0" width="56" height="56" class="frame-background"/></g><g class="frame-children"><g class="icon" style="fill: rgb(0, 0, 0);"><defs><linearGradient id="a" x1=".519" y1=".034" x2=".505" y2=".772"><stop offset="0" stop-color="#ffd8d8"/><stop offset="1" stop-color="#dcf4ff"/></linearGradient><pattern patternUnits="userSpaceOnUse" x="3.5" y="10.232" width="49" height="35.536" id="b"><rect width="49" height="35.536" style="fill: url(&quot;#a&quot;);"/></pattern></defs><path d="M52.5 27.84c0-.12 0-.257-.006-.416-.005-.443-.016-.94-.027-1.471a83.926 83.926 0 0 0-.242-4.479c-.165-1.974-.406-3.62-.735-4.856a7.629 7.629 0 0 0-5.377-5.385c-1.548-.415-4.577-.671-8.843-.829a258.53 258.53 0 0 0-6.371-.151c-.76-.011-1.466-.016-2.1-.021h-1.608c-.634.006-1.34.012-2.1.023-2.171.028-4.342.078-6.371.155-4.266.165-7.301.423-8.843.833a7.623 7.623 0 0 0-5.374 5.389c-.333 1.236-.568 2.882-.731 4.856a82.927 82.927 0 0 0-.24 4.479c-.016.531-.021 1.028-.027 1.471 0 .159-.005.296-.005.416v.306c0 .12 0 .257.006.416.005.443.016.94.027 1.471.045 1.526.122 3.046.242 4.479.165 1.974.406 3.62.735 4.856a7.618 7.618 0 0 0 5.377 5.385c1.542.415 4.577.671 8.843.829 2.029.076 4.2.124 6.371.151.76.011 1.466.016 2.1.021h1.608c.634-.006 1.34-.012 2.1-.023 2.171-.028 4.342-.078 6.371-.155 4.266-.165 7.301-.423 8.843-.833a7.613 7.613 0 0 0 5.374-5.389c.333-1.236.568-2.882.731-4.856.12-1.433.196-2.953.24-4.479.016-.531.021-1.028.027-1.471 0-.159.005-.296.005-.416v-.306Zm-3.937.285c0 .115 0 .241-.006.389-.005.426-.016.897-.027 1.405a74.425 74.425 0 0 1-.228 4.26c-.147 1.761-.355 3.205-.612 4.173a3.677 3.677 0 0 1-2.591 2.599c-1.148.306-4.041.553-7.973.702a249.38 249.38 0 0 1-8.34.172h-1.564l-2.067-.016a245.593 245.593 0 0 1-6.273-.151c-3.932-.152-6.831-.392-7.974-.698a3.687 3.687 0 0 1-2.593-2.597c-.257-.967-.465-2.411-.613-4.172a79.269 79.269 0 0 1-.231-4.26c-.017-.509-.022-.984-.028-1.406 0-.147-.005-.278-.005-.388l-.001-.262c0-.115 0-.241.006-.389.005-.426.016-.897.027-1.405.038-1.455.114-2.91.228-4.26.147-1.761.355-3.205.612-4.173a3.677 3.677 0 0 1 2.591-2.599c1.148-.306 4.041-.553 7.973-.702a249.38 249.38 0 0 1 8.34-.172h1.564l2.067.016c2.139.026 4.277.075 6.273.151 3.932.152 6.831.392 7.974.698a3.687 3.687 0 0 1 2.593 2.597c.257.967.465 2.411.613 4.172.115 1.351.187 2.805.231 4.26.017.509.022.984.028 1.406 0 .147.005.278.005.388l.001.262ZM23.135 35.33l12.685-7.387-12.689-7.27Z" fill="url(#b)" class="fills"/></g></g></svg>